<svg width="34" height="18" viewBox="0 0 34 18" fill="none" xmlns="http://www.w3.org/2000/svg">
<path d="M9.5483 0.351217C9.6596 0.461611 9.74795 0.592949 9.80823 0.737658C9.86852 0.882364 9.89956 1.03758 9.89956 1.19434C9.89956 1.35111 9.86852 1.50632 9.80823 1.65103C9.74795 1.79573 9.6596 1.92707 9.5483 2.03747L4.0858 7.49997H32.0396C32.3545 7.49997 32.6565 7.62508 32.8792 7.84778C33.1019 8.07048 33.2271 8.37252 33.2271 8.68747C33.2271 9.00241 33.1019 9.30446 32.8792 9.52716C32.6565 9.74985 32.3545 9.87497 32.0396 9.87497H4.10955L9.5483 15.3018C9.76947 15.5243 9.89362 15.8253 9.89362 16.139C9.89362 16.4527 9.76947 16.7537 9.5483 16.9762C9.32581 17.1974 9.02483 17.3215 8.71111 17.3215C8.39739 17.3215 8.09642 17.1974 7.87393 16.9762L0.321426 9.42372C0.219772 9.32619 0.138889 9.20911 0.0836372 9.07953C0.0283852 8.94994 -9.91821e-05 8.81052 -9.91821e-05 8.66965C-9.91821e-05 8.52878 0.0283852 8.38936 0.0836372 8.25978C0.138889 8.1302 0.219772 8.01312 0.321426 7.91559L7.86205 0.351217C7.97244 0.239914 8.10378 0.151571 8.24849 0.0912838C8.3932 0.0309963 8.54841 -4.3869e-05 8.70518 -4.3869e-05C8.86194 -4.3869e-05 9.01715 0.0309963 9.16186 0.0912838C9.30657 0.151571 9.43791 0.239914 9.5483 0.351217Z" fill="white" fill-opacity="0.7"/>
</svg>
