<svg width="34" height="18" viewBox="0 0 34 18" fill="none" xmlns="http://www.w3.org/2000/svg">
<path d="M23.6788 0.351217C23.5674 0.461611 23.4791 0.592949 23.4188 0.737658C23.3585 0.882364 23.3275 1.03758 23.3275 1.19434C23.3275 1.35111 23.3585 1.50632 23.4188 1.65103C23.4791 1.79573 23.5674 1.92707 23.6788 2.03747L29.1413 7.49997H1.1875C0.872555 7.49997 0.57051 7.62508 0.347811 7.84778C0.125111 8.07048 0 8.37252 0 8.68747C0 9.00241 0.125111 9.30446 0.347811 9.52716C0.57051 9.74985 0.872555 9.87497 1.1875 9.87497H29.1175L23.6788 15.3018C23.4576 15.5243 23.3334 15.8253 23.3334 16.139C23.3334 16.4527 23.4576 16.7537 23.6788 16.9762C23.9012 17.1974 24.2022 17.3215 24.5159 17.3215C24.8297 17.3215 25.1306 17.1974 25.3531 16.9762L32.9056 9.42372C33.0073 9.32619 33.0882 9.20911 33.1434 9.07953C33.1987 8.94994 33.2271 8.81053 33.2271 8.66965C33.2271 8.52878 33.1987 8.38936 33.1434 8.25978C33.0882 8.1302 33.0073 8.01312 32.9056 7.91559L25.365 0.351217C25.2546 0.239914 25.1233 0.151571 24.9786 0.0912838C24.8339 0.0309963 24.6786 -4.3869e-05 24.5219 -4.3869e-05C24.3651 -4.3869e-05 24.2099 0.0309963 24.0652 0.0912838C23.9205 0.151571 23.7891 0.239914 23.6788 0.351217Z" fill="white" fill-opacity="0.9"/>
</svg>
