<svg width="17" height="17" viewBox="0 0 17 17" fill="none" xmlns="http://www.w3.org/2000/svg">
<path fill-rule="evenodd" clip-rule="evenodd" d="M3.66367 8.49997C3.66367 7.94787 3.75531 7.41848 3.91907 6.92203L1.0543 4.73447C0.495957 5.86803 0.181458 7.14542 0.181458 8.49997C0.181458 9.85347 0.495692 11.1299 1.05311 12.2628L3.91628 10.071C3.75411 9.57682 3.66367 9.04942 3.66367 8.49997Z" fill="#FBBC05"/>
<path fill-rule="evenodd" clip-rule="evenodd" d="M8.6935 3.47736C9.89293 3.47736 10.9763 3.90236 11.8275 4.59777L14.3036 2.12506C12.7948 0.811416 10.8602 6.38962e-05 8.6935 6.38962e-05C5.32963 6.38962e-05 2.43857 1.92372 1.05426 4.73456L3.91889 6.92212C4.57897 4.91851 6.46053 3.47736 8.6935 3.47736Z" fill="#EA4335"/>
<path fill-rule="evenodd" clip-rule="evenodd" d="M8.6935 13.5227C6.46066 13.5227 4.5791 12.0816 3.91903 10.0779L1.05426 12.2651C2.43857 15.0763 5.32963 17 8.6935 17C10.7696 17 12.7519 16.2628 14.2395 14.8815L11.5203 12.7794C10.753 13.2627 9.78681 13.5227 8.6935 13.5227Z" fill="#34A853"/>
<path fill-rule="evenodd" clip-rule="evenodd" d="M16.8186 8.49996C16.8186 7.99766 16.7411 7.45672 16.625 6.95455H8.69348V10.2386H13.259C13.0307 11.3584 12.4094 12.2191 11.5203 12.7793L14.2395 14.8815C15.8021 13.4312 16.8186 11.2706 16.8186 8.49996Z" fill="#4285F4"/>
</svg>
