<svg width="19" height="17" viewBox="0 0 19 17" fill="none" xmlns="http://www.w3.org/2000/svg">
<path d="M16.1491 3.25H14.1165L13.4918 1.48687C13.2975 0.904124 12.7541 0.625 12.1399 0.625H6.86013C6.24587 0.625 5.7025 0.904124 5.50825 1.48687L4.8835 3.25H2.85087C1.54187 3.25 0.75 4.34113 0.75 5.65013V14.1989C0.75 15.5079 1.54187 16.375 2.85087 16.375H16.1482C17.4581 16.375 18.25 15.5079 18.25 14.1989V5.65013C18.25 4.34113 17.4581 3.25 16.1491 3.25ZM17.375 14.1989C17.375 14.9846 16.9349 15.5 16.1491 15.5H2.85087C2.06512 15.5 1.625 14.9846 1.625 14.1989V5.65013C1.625 4.86525 2.06512 4.125 2.85087 4.125H5.22563C5.43038 4.125 5.6115 4.0445 5.67625 3.85112L6.4095 1.738C6.47425 1.54375 6.65538 1.5 6.86013 1.5H12.1399C12.3446 1.5 12.5257 1.56825 12.5905 1.76338L13.3237 3.88175C13.3885 4.07512 13.5696 4.125 13.7744 4.125H16.1491C16.9349 4.125 17.375 4.86525 17.375 5.65013V14.1989Z" fill="white"/>
<path d="M9.49999 4.70073C6.88111 4.70073 4.75049 6.83135 4.75049 9.45023C4.75049 12.0691 6.88111 14.1989 9.49999 14.1989C12.1189 14.1989 14.2495 12.0682 14.2495 9.44935C14.2495 6.83048 12.1189 4.70073 9.49999 4.70073ZM9.49999 13.2495C7.40524 13.2495 5.70074 11.545 5.70074 9.45023C5.70074 7.35548 7.40524 5.6501 9.49999 5.6501C11.5947 5.6501 13.2992 7.3546 13.2992 9.44935C13.2992 11.5441 11.5947 13.2495 9.49999 13.2495Z" fill="white"/>
</svg>
