<svg width="41" height="29" viewBox="0 0 41 29" fill="none" xmlns="http://www.w3.org/2000/svg">
<path d="M40.0837 2.74052C40.0837 1.66416 39.2112 0.791606 38.1348 0.791606H22.4493C21.373 0.791606 20.5004 1.66416 20.5004 2.74052C20.5004 3.81688 21.373 4.68945 22.4493 4.68945H38.1348C39.2112 4.68945 40.0837 3.81688 40.0837 2.74052Z" fill="white"/>
<path d="M40.0837 14.4995C40.0837 13.423 39.2112 12.5506 38.1348 12.5506H2.86601C1.78971 12.5506 0.917076 13.423 0.917076 14.4995C0.917076 15.5758 1.78971 16.4482 2.86601 16.4482H38.1348C39.2112 16.4482 40.0837 15.5758 40.0837 14.4995Z" fill="white"/>
<path d="M38.1348 24.3105C39.2112 24.3105 40.0837 25.1831 40.0837 26.2594C40.0837 27.3357 39.2112 28.2084 38.1348 28.2084H14.616C13.5397 28.2084 12.6671 27.3357 12.6671 26.2594C12.6671 25.1831 13.5397 24.3105 14.616 24.3105H38.1348Z" fill="white"/>
</svg>
